<svg width="108" height="108" fill="none" xmlns="http://www.w3.org/2000/svg"><path d="M54 108c29.823 0 54-24.177 54-54S83.823 0 54 0 0 24.177 0 54s24.177 54 54 54z" fill="#D7D8EF"/><path d="M87.625 61.261a.733.733 0 0 1-.723-.723V50.143a.723.723 0 0 1 1.446 0v10.404a.723.723 0 0 1-.723.714zM87.625 47a.723.723 0 0 1-.723-.724v-2.131a.723.723 0 0 1 1.446 0v2.14a.713.713 0 0 1-.723.714zM29.01 36.566h-4.004a.751.751 0 0 1 0-1.502h4.003a.751.751 0 0 1 0 1.502z" fill="#21268F"/><path d="M27.008 38.568a.751.751 0 0 1-.75-.751v-4.004a.751.751 0 0 1 1.501 0v4.004c0 .414-.336.75-.75.75zM41.464 82.929a.965.965 0 1 1 0 1.929.965.965 0 0 1 0-1.93zM35.678 82.929a.965.965 0 1 1 0 1.929.965.965 0 0 1 0-1.93zM29.893 82.929a.965.965 0 1 1 0 1.929.965.965 0 0 1 0-1.93z" fill="#21268F"/><path d="M53.848 26.147 26.736 48.421l27.112 22.284L80.96 48.42 53.848 26.147z" fill="#D7D8EF"/><path d="M53.848 71.487a.75.75 0 0 1-.47-.22L26.267 48.985a.782.782 0 0 1-.205-.938.813.813 0 0 1 .205-.272L53.38 25.5a.782.782 0 0 1 1.042 0l27.112 22.274a.813.813 0 0 1 .282.605.781.781 0 0 1-.282.605L54.421 71.268a.75.75 0 0 1-.573.219zM27.966 48.42l25.882 21.272L79.729 48.42 53.848 27.158 27.966 48.42z" fill="#21268F"/><path d="M73.14 32.404H34.556v45.882h38.582V32.404z" fill="#D7D8EF"/><path d="m62.336 45.96-13.18 10.834v21.492h23.983V45.96H62.336z" fill="#D7D8EF"/><path d="m62.336 45.96-13.18 10.834v21.492h23.983V45.96H62.336z" fill="#D7D8EF"/><path d="M73.191 79.067H34.61a.793.793 0 0 1-.782-.781V32.402a.782.782 0 0 1 .782-.76H73.19a.782.782 0 0 1 .782.781v45.882a.792.792 0 0 1-.782.761zM35.34 77.524h37.018V33.206H35.34v44.318z" fill="#21268F"/><path d="M66.361 39.442H54.192a.782.782 0 0 1 0-1.564h12.17a.782.782 0 1 1 0 1.564zM50.02 39.442h-8.685a.782.782 0 0 1 0-1.564h8.686a.782.782 0 0 1 0 1.564zM66.36 44.656h-7.997a.782.782 0 0 1 0-1.564h7.998a.782.782 0 1 1 0 1.564zM54.192 44.656H41.335a.782.782 0 1 1 0-1.564h12.857a.782.782 0 1 1 0 1.564zM66.361 49.87H52.106a.782.782 0 1 1 0-1.564h14.255a.782.782 0 0 1 0 1.564zM47.935 49.87h-6.6a.782.782 0 1 1 0-1.564h6.6a.782.782 0 1 1 0 1.564zM66.36 55.084h-6.954a.782.782 0 0 1 0-1.564h6.955a.782.782 0 1 1 0 1.564zM55.235 55.084h-13.9a.782.782 0 1 1 0-1.564h13.9a.782.782 0 1 1 0 1.564zM60.803 60.298h-13.91a.782.782 0 0 1 0-1.564h13.91a.782.782 0 1 1 0 1.564z" fill="#21268F"/><path d="M26.736 48.42v29.865L44.9 63.353 26.736 48.42zM62.795 63.353 80.96 78.285V48.421L62.795 63.352zM53.848 70.705 44.9 63.353 26.736 78.286H80.96L62.795 63.353l-8.947 7.352z" fill="#D7D8EF"/><path d="M31.95 56.804V74l10.459-8.593-10.46-8.603z" fill="#D7D8EF"/><path d="M31.95 56.804V74l10.459-8.593-10.46-8.603zM71.095 65.115l9.865 8.113V57.013l-9.865 8.102z" fill="#D7D8EF"/><path d="m71.095 65.115 9.865 8.113V57.013l-9.865 8.102z" fill="#D7D8EF"/><path d="M26.736 79.068a.75.75 0 0 1-.334-.084.771.771 0 0 1-.448-.698V48.42a.771.771 0 0 1 .448-.698.781.781 0 0 1 .834.094l18.165 14.932a.791.791 0 0 1 0 1.21L27.236 78.88a.772.772 0 0 1-.5.188zm.782-28.99v26.55L43.67 63.352 27.518 50.078z" fill="#21268F"/><path d="M67.977 67.607 56.56 76.992l-7.967-6.548-9.53 7.841H80.96L67.977 67.607z" fill="#D7D8EF"/><path d="M67.977 67.607 56.56 76.992l-7.967-6.548-9.53 7.841H80.96L67.977 67.607z" fill="#D7D8EF"/><path d="M80.96 79.068a.772.772 0 0 1-.5-.188L62.295 63.968a.793.793 0 0 1 0-1.21L80.49 47.817a.782.782 0 0 1 .834-.094.772.772 0 0 1 .448.698v29.865a.772.772 0 0 1-.448.7.751.751 0 0 1-.365.083zM64.026 63.353l16.152 13.274V50.08L64.025 63.352z" fill="#21268F"/><path d="M80.96 79.068H26.736a.792.792 0 0 1-.74-.522.793.793 0 0 1 .239-.865L44.4 62.748a.782.782 0 0 1 1.043 0l8.446 6.945 8.447-6.945a.782.782 0 0 1 1.043 0l18.165 14.933a.793.793 0 0 1 .24.865.793.793 0 0 1-.824.522zm-52.045-1.544H78.78l-16.017-13.16-8.446 6.945a.782.782 0 0 1-1.043 0l-8.446-6.944-15.913 13.16zM52.153 84.78h-4.004a.751.751 0 0 1 0-1.502h4.004a.751.751 0 0 1 0 1.502z" fill="#21268F"/><path d="M50.151 86.782a.751.751 0 0 1-.75-.75v-4.005a.751.751 0 0 1 1.5 0v4.004c0 .415-.336.751-.75.751z" fill="#21268F"/></svg>